<mxfile host="app.diagrams.net" agent="Mozilla/5.0 (Windows NT 10.0; Win64; x64) AppleWebKit/537.36 (KHTML, like Gecko) Chrome/127.0.0.0 Safari/537.36" version="24.7.7">
  <diagram name="Page-1" id="Xims1WlKcYDbNQN4OqD3">
    <mxGraphModel dx="1760" dy="1590" grid="1" gridSize="10" guides="1" tooltips="1" connect="1" arrows="1" fold="1" page="1" pageScale="1" pageWidth="850" pageHeight="1100" math="0" shadow="0">
      <root>
        <mxCell id="0" />
        <mxCell id="1" parent="0" />
        <mxCell id="JtSwTdIA30WOySHyKtoY-1" style="edgeStyle=orthogonalEdgeStyle;rounded=0;orthogonalLoop=1;jettySize=auto;html=1;endArrow=none;endFill=0;" edge="1" parent="1" source="JtSwTdIA30WOySHyKtoY-2" target="JtSwTdIA30WOySHyKtoY-5">
          <mxGeometry relative="1" as="geometry" />
        </mxCell>
        <mxCell id="JtSwTdIA30WOySHyKtoY-2" value="Course_Name" style="ellipse;whiteSpace=wrap;html=1;fillColor=#76608a;fontColor=#ffffff;strokeColor=#432D57;" vertex="1" parent="1">
          <mxGeometry x="-110" y="-40" width="90" height="30" as="geometry" />
        </mxCell>
        <mxCell id="JtSwTdIA30WOySHyKtoY-3" style="edgeStyle=orthogonalEdgeStyle;rounded=0;orthogonalLoop=1;jettySize=auto;html=1;entryX=0;entryY=0.5;entryDx=0;entryDy=0;endArrow=none;endFill=0;" edge="1" parent="1" source="JtSwTdIA30WOySHyKtoY-4" target="JtSwTdIA30WOySHyKtoY-5">
          <mxGeometry relative="1" as="geometry" />
        </mxCell>
        <mxCell id="JtSwTdIA30WOySHyKtoY-4" value="&lt;u&gt;Course_ID&lt;/u&gt;" style="ellipse;whiteSpace=wrap;html=1;fillColor=#76608a;fontColor=#ffffff;strokeColor=#432D57;" vertex="1" parent="1">
          <mxGeometry x="-90" y="30" width="70" height="30" as="geometry" />
        </mxCell>
        <mxCell id="JtSwTdIA30WOySHyKtoY-5" value="Course" style="rounded=0;whiteSpace=wrap;html=1;fillColor=#e51400;fontColor=#ffffff;strokeColor=#B20000;" vertex="1" parent="1">
          <mxGeometry x="50" y="-20" width="120" height="60" as="geometry" />
        </mxCell>
        <mxCell id="JtSwTdIA30WOySHyKtoY-6" style="edgeStyle=orthogonalEdgeStyle;rounded=0;orthogonalLoop=1;jettySize=auto;html=1;endArrow=none;endFill=0;" edge="1" parent="1" source="JtSwTdIA30WOySHyKtoY-9" target="JtSwTdIA30WOySHyKtoY-70">
          <mxGeometry relative="1" as="geometry">
            <Array as="points">
              <mxPoint x="230" y="375" />
              <mxPoint x="200" y="375" />
            </Array>
          </mxGeometry>
        </mxCell>
        <mxCell id="JtSwTdIA30WOySHyKtoY-7" style="edgeStyle=orthogonalEdgeStyle;rounded=0;orthogonalLoop=1;jettySize=auto;html=1;exitX=1;exitY=1;exitDx=0;exitDy=0;entryX=0.5;entryY=0;entryDx=0;entryDy=0;endArrow=none;endFill=0;" edge="1" parent="1" source="JtSwTdIA30WOySHyKtoY-9" target="JtSwTdIA30WOySHyKtoY-120">
          <mxGeometry relative="1" as="geometry" />
        </mxCell>
        <mxCell id="JtSwTdIA30WOySHyKtoY-8" style="edgeStyle=elbowEdgeStyle;rounded=0;orthogonalLoop=1;jettySize=auto;html=1;entryX=0.5;entryY=0;entryDx=0;entryDy=0;endArrow=none;endFill=0;" edge="1" parent="1" source="JtSwTdIA30WOySHyKtoY-9" target="JtSwTdIA30WOySHyKtoY-82">
          <mxGeometry relative="1" as="geometry" />
        </mxCell>
        <mxCell id="JtSwTdIA30WOySHyKtoY-9" value="Student" style="rounded=0;whiteSpace=wrap;html=1;fillColor=#e51400;fontColor=#ffffff;strokeColor=#B20000;" vertex="1" parent="1">
          <mxGeometry x="190" y="415" width="120" height="60" as="geometry" />
        </mxCell>
        <mxCell id="JtSwTdIA30WOySHyKtoY-10" style="edgeStyle=elbowEdgeStyle;rounded=0;orthogonalLoop=1;jettySize=auto;html=1;entryX=0;entryY=0.75;entryDx=0;entryDy=0;endArrow=none;endFill=0;" edge="1" parent="1" source="JtSwTdIA30WOySHyKtoY-11" target="JtSwTdIA30WOySHyKtoY-9">
          <mxGeometry relative="1" as="geometry" />
        </mxCell>
        <mxCell id="JtSwTdIA30WOySHyKtoY-11" value="Gender" style="ellipse;whiteSpace=wrap;html=1;fillColor=#76608a;fontColor=#ffffff;strokeColor=#432D57;" vertex="1" parent="1">
          <mxGeometry x="20" y="486" width="60" height="30" as="geometry" />
        </mxCell>
        <mxCell id="JtSwTdIA30WOySHyKtoY-12" style="edgeStyle=elbowEdgeStyle;rounded=0;orthogonalLoop=1;jettySize=auto;html=1;exitX=0.5;exitY=1;exitDx=0;exitDy=0;entryX=0;entryY=0.25;entryDx=0;entryDy=0;endArrow=none;endFill=0;" edge="1" parent="1" source="JtSwTdIA30WOySHyKtoY-13" target="JtSwTdIA30WOySHyKtoY-9">
          <mxGeometry relative="1" as="geometry">
            <mxPoint x="140" y="390" as="targetPoint" />
          </mxGeometry>
        </mxCell>
        <mxCell id="JtSwTdIA30WOySHyKtoY-13" value="ST_Lname" style="ellipse;whiteSpace=wrap;html=1;fillColor=#76608a;fontColor=#ffffff;strokeColor=#432D57;" vertex="1" parent="1">
          <mxGeometry x="85" y="305" width="70" height="30" as="geometry" />
        </mxCell>
        <mxCell id="JtSwTdIA30WOySHyKtoY-14" style="edgeStyle=elbowEdgeStyle;rounded=0;orthogonalLoop=1;jettySize=auto;html=1;exitX=1;exitY=0.5;exitDx=0;exitDy=0;entryX=0;entryY=0.25;entryDx=0;entryDy=0;endArrow=none;endFill=0;" edge="1" parent="1" source="JtSwTdIA30WOySHyKtoY-15" target="JtSwTdIA30WOySHyKtoY-9">
          <mxGeometry relative="1" as="geometry">
            <mxPoint x="140" y="420" as="targetPoint" />
          </mxGeometry>
        </mxCell>
        <mxCell id="JtSwTdIA30WOySHyKtoY-15" value="DOB" style="ellipse;whiteSpace=wrap;html=1;fillColor=#76608a;fontColor=#ffffff;strokeColor=#432D57;" vertex="1" parent="1">
          <mxGeometry x="20" y="351" width="60" height="30" as="geometry" />
        </mxCell>
        <mxCell id="JtSwTdIA30WOySHyKtoY-16" style="edgeStyle=elbowEdgeStyle;rounded=0;orthogonalLoop=1;jettySize=auto;html=1;exitX=1;exitY=1;exitDx=0;exitDy=0;endArrow=none;endFill=0;" edge="1" parent="1" source="JtSwTdIA30WOySHyKtoY-17">
          <mxGeometry relative="1" as="geometry">
            <mxPoint x="190" y="430" as="targetPoint" />
          </mxGeometry>
        </mxCell>
        <mxCell id="JtSwTdIA30WOySHyKtoY-17" value="Phone" style="ellipse;whiteSpace=wrap;html=1;fillColor=#76608a;fontColor=#ffffff;strokeColor=#432D57;" vertex="1" parent="1">
          <mxGeometry x="20" y="310" width="60" height="35" as="geometry" />
        </mxCell>
        <mxCell id="JtSwTdIA30WOySHyKtoY-18" style="edgeStyle=elbowEdgeStyle;rounded=0;orthogonalLoop=1;jettySize=auto;html=1;exitX=1;exitY=0.5;exitDx=0;exitDy=0;entryX=0;entryY=0.25;entryDx=0;entryDy=0;endArrow=none;endFill=0;" edge="1" parent="1" source="JtSwTdIA30WOySHyKtoY-19" target="JtSwTdIA30WOySHyKtoY-9">
          <mxGeometry relative="1" as="geometry">
            <mxPoint x="140" y="435" as="targetPoint" />
          </mxGeometry>
        </mxCell>
        <mxCell id="JtSwTdIA30WOySHyKtoY-19" value="Address" style="ellipse;whiteSpace=wrap;html=1;fillColor=#76608a;fontColor=#ffffff;strokeColor=#432D57;" vertex="1" parent="1">
          <mxGeometry x="15" y="385" width="60" height="30" as="geometry" />
        </mxCell>
        <mxCell id="JtSwTdIA30WOySHyKtoY-20" style="edgeStyle=elbowEdgeStyle;rounded=0;orthogonalLoop=1;jettySize=auto;html=1;entryX=0;entryY=1;entryDx=0;entryDy=0;endArrow=none;endFill=0;" edge="1" parent="1" source="JtSwTdIA30WOySHyKtoY-21" target="JtSwTdIA30WOySHyKtoY-9">
          <mxGeometry relative="1" as="geometry" />
        </mxCell>
        <mxCell id="JtSwTdIA30WOySHyKtoY-21" value="ST_Fname" style="ellipse;whiteSpace=wrap;html=1;fillColor=#76608a;fontColor=#ffffff;strokeColor=#432D57;" vertex="1" parent="1">
          <mxGeometry x="15" y="521" width="70" height="40" as="geometry" />
        </mxCell>
        <mxCell id="JtSwTdIA30WOySHyKtoY-22" style="edgeStyle=orthogonalEdgeStyle;rounded=0;orthogonalLoop=1;jettySize=auto;html=1;entryX=1;entryY=0.25;entryDx=0;entryDy=0;endArrow=none;endFill=0;" edge="1" parent="1" source="JtSwTdIA30WOySHyKtoY-23" target="JtSwTdIA30WOySHyKtoY-9">
          <mxGeometry relative="1" as="geometry" />
        </mxCell>
        <mxCell id="JtSwTdIA30WOySHyKtoY-23" value="&lt;u&gt;ST_ID&lt;/u&gt;" style="ellipse;whiteSpace=wrap;html=1;fillColor=#76608a;fontColor=#ffffff;strokeColor=#432D57;" vertex="1" parent="1">
          <mxGeometry x="370" y="365" width="70" height="30" as="geometry" />
        </mxCell>
        <mxCell id="JtSwTdIA30WOySHyKtoY-24" value="Branch" style="rounded=0;whiteSpace=wrap;html=1;fillColor=#e51400;fontColor=#ffffff;strokeColor=#B20000;" vertex="1" parent="1">
          <mxGeometry x="60" y="750" width="120" height="60" as="geometry" />
        </mxCell>
        <mxCell id="JtSwTdIA30WOySHyKtoY-25" style="edgeStyle=orthogonalEdgeStyle;rounded=0;orthogonalLoop=1;jettySize=auto;html=1;entryX=0.5;entryY=0;entryDx=0;entryDy=0;endArrow=none;endFill=0;" edge="1" parent="1" source="JtSwTdIA30WOySHyKtoY-26" target="JtSwTdIA30WOySHyKtoY-75">
          <mxGeometry relative="1" as="geometry">
            <Array as="points">
              <mxPoint x="420" y="60" />
              <mxPoint x="625" y="60" />
            </Array>
          </mxGeometry>
        </mxCell>
        <mxCell id="JtSwTdIA30WOySHyKtoY-26" value="Question" style="rounded=0;whiteSpace=wrap;html=1;fillColor=#e51400;fontColor=#ffffff;strokeColor=#B20000;" vertex="1" parent="1">
          <mxGeometry x="360" y="-20" width="120" height="60" as="geometry" />
        </mxCell>
        <mxCell id="JtSwTdIA30WOySHyKtoY-27" value="Question" style="ellipse;whiteSpace=wrap;html=1;fillColor=#76608a;fontColor=#ffffff;strokeColor=#432D57;" vertex="1" parent="1">
          <mxGeometry x="430" y="-80" width="90" height="30" as="geometry" />
        </mxCell>
        <mxCell id="JtSwTdIA30WOySHyKtoY-28" style="edgeStyle=elbowEdgeStyle;rounded=0;orthogonalLoop=1;jettySize=auto;html=1;entryX=0.25;entryY=0;entryDx=0;entryDy=0;endArrow=none;endFill=0;" edge="1" parent="1" source="JtSwTdIA30WOySHyKtoY-29" target="JtSwTdIA30WOySHyKtoY-26">
          <mxGeometry relative="1" as="geometry" />
        </mxCell>
        <mxCell id="JtSwTdIA30WOySHyKtoY-29" value="&lt;u&gt;Questi_ID&lt;/u&gt;" style="ellipse;whiteSpace=wrap;html=1;fillColor=#76608a;fontColor=#ffffff;strokeColor=#432D57;" vertex="1" parent="1">
          <mxGeometry x="350" y="-80" width="70" height="30" as="geometry" />
        </mxCell>
        <mxCell id="JtSwTdIA30WOySHyKtoY-30" value="Choices" style="rounded=0;whiteSpace=wrap;html=1;fillColor=#e51400;fontColor=#ffffff;strokeColor=#B20000;" vertex="1" parent="1">
          <mxGeometry x="690" y="-30" width="120" height="60" as="geometry" />
        </mxCell>
        <mxCell id="JtSwTdIA30WOySHyKtoY-31" value="choice" style="ellipse;whiteSpace=wrap;html=1;fillColor=#76608a;fontColor=#ffffff;strokeColor=#432D57;" vertex="1" parent="1">
          <mxGeometry x="668" y="-100" width="90" height="30" as="geometry" />
        </mxCell>
        <mxCell id="JtSwTdIA30WOySHyKtoY-32" style="edgeStyle=elbowEdgeStyle;rounded=0;orthogonalLoop=1;jettySize=auto;html=1;entryX=0.25;entryY=1;entryDx=0;entryDy=0;endArrow=none;endFill=0;" edge="1" parent="1" source="JtSwTdIA30WOySHyKtoY-33" target="JtSwTdIA30WOySHyKtoY-24">
          <mxGeometry relative="1" as="geometry" />
        </mxCell>
        <mxCell id="JtSwTdIA30WOySHyKtoY-33" value="Branch_name" style="ellipse;whiteSpace=wrap;html=1;fillColor=#76608a;fontColor=#ffffff;strokeColor=#432D57;" vertex="1" parent="1">
          <mxGeometry x="30" y="870" width="80" height="40" as="geometry" />
        </mxCell>
        <mxCell id="JtSwTdIA30WOySHyKtoY-34" style="edgeStyle=elbowEdgeStyle;rounded=0;orthogonalLoop=1;jettySize=auto;html=1;entryX=0;entryY=0.25;entryDx=0;entryDy=0;endArrow=none;endFill=0;" edge="1" parent="1" source="JtSwTdIA30WOySHyKtoY-35" target="JtSwTdIA30WOySHyKtoY-24">
          <mxGeometry relative="1" as="geometry" />
        </mxCell>
        <mxCell id="JtSwTdIA30WOySHyKtoY-35" value="&lt;u&gt;Branch_ID&lt;/u&gt;" style="ellipse;whiteSpace=wrap;html=1;fillColor=#76608a;fontColor=#ffffff;strokeColor=#432D57;" vertex="1" parent="1">
          <mxGeometry x="-33" y="700" width="70" height="30" as="geometry" />
        </mxCell>
        <mxCell id="JtSwTdIA30WOySHyKtoY-36" value="Branch_Gov" style="ellipse;whiteSpace=wrap;html=1;fillColor=#76608a;fontColor=#ffffff;strokeColor=#432D57;" vertex="1" parent="1">
          <mxGeometry x="-40" y="810" width="80" height="40" as="geometry" />
        </mxCell>
        <mxCell id="JtSwTdIA30WOySHyKtoY-37" style="edgeStyle=elbowEdgeStyle;rounded=0;orthogonalLoop=1;jettySize=auto;html=1;entryX=0;entryY=0.5;entryDx=0;entryDy=0;endArrow=none;endFill=0;" edge="1" parent="1" source="JtSwTdIA30WOySHyKtoY-38" target="JtSwTdIA30WOySHyKtoY-150">
          <mxGeometry relative="1" as="geometry" />
        </mxCell>
        <mxCell id="JtSwTdIA30WOySHyKtoY-38" value="Freelancing" style="rounded=0;whiteSpace=wrap;html=1;fillColor=#e51400;fontColor=#ffffff;strokeColor=#B20000;" vertex="1" parent="1">
          <mxGeometry x="775.0699999999999" y="819.97" width="120" height="60" as="geometry" />
        </mxCell>
        <mxCell id="JtSwTdIA30WOySHyKtoY-39" style="edgeStyle=elbowEdgeStyle;rounded=0;orthogonalLoop=1;jettySize=auto;html=1;entryX=1;entryY=0.25;entryDx=0;entryDy=0;endArrow=none;endFill=0;" edge="1" parent="1" source="JtSwTdIA30WOySHyKtoY-40" target="JtSwTdIA30WOySHyKtoY-38">
          <mxGeometry relative="1" as="geometry" />
        </mxCell>
        <mxCell id="JtSwTdIA30WOySHyKtoY-40" value="&lt;u&gt;Freelancing_id&lt;/u&gt;" style="ellipse;whiteSpace=wrap;html=1;fillColor=#76608a;fontColor=#ffffff;strokeColor=#432D57;" vertex="1" parent="1">
          <mxGeometry x="855.0699999999999" y="769.97" width="90" height="30" as="geometry" />
        </mxCell>
        <mxCell id="JtSwTdIA30WOySHyKtoY-41" style="edgeStyle=elbowEdgeStyle;rounded=0;orthogonalLoop=1;jettySize=auto;html=1;entryX=1;entryY=0.5;entryDx=0;entryDy=0;endArrow=none;endFill=0;" edge="1" parent="1" source="JtSwTdIA30WOySHyKtoY-42" target="JtSwTdIA30WOySHyKtoY-38">
          <mxGeometry relative="1" as="geometry" />
        </mxCell>
        <mxCell id="JtSwTdIA30WOySHyKtoY-42" value="Website_Name" style="ellipse;whiteSpace=wrap;html=1;fillColor=#76608a;fontColor=#ffffff;strokeColor=#432D57;" vertex="1" parent="1">
          <mxGeometry x="864.9999999999999" y="925" width="90" height="30" as="geometry" />
        </mxCell>
        <mxCell id="JtSwTdIA30WOySHyKtoY-43" style="edgeStyle=elbowEdgeStyle;rounded=0;orthogonalLoop=1;jettySize=auto;html=1;endArrow=none;endFill=0;fillColor=#76608a;strokeColor=#432D57;" edge="1" parent="1" source="JtSwTdIA30WOySHyKtoY-44" target="JtSwTdIA30WOySHyKtoY-38">
          <mxGeometry relative="1" as="geometry" />
        </mxCell>
        <mxCell id="JtSwTdIA30WOySHyKtoY-44" value="Status" style="ellipse;whiteSpace=wrap;html=1;fillColor=#76608a;fontColor=#ffffff;strokeColor=#432D57;" vertex="1" parent="1">
          <mxGeometry x="765.0699999999999" y="919.97" width="90" height="30" as="geometry" />
        </mxCell>
        <mxCell id="JtSwTdIA30WOySHyKtoY-45" style="edgeStyle=orthogonalEdgeStyle;rounded=0;orthogonalLoop=1;jettySize=auto;html=1;entryX=0.5;entryY=0;entryDx=0;entryDy=0;endArrow=none;endFill=0;" edge="1" parent="1" source="JtSwTdIA30WOySHyKtoY-46" target="JtSwTdIA30WOySHyKtoY-83">
          <mxGeometry relative="1" as="geometry" />
        </mxCell>
        <mxCell id="JtSwTdIA30WOySHyKtoY-46" value="Role" style="ellipse;whiteSpace=wrap;html=1;fillColor=#76608a;fontColor=#ffffff;strokeColor=#432D57;" vertex="1" parent="1">
          <mxGeometry x="440" y="730" width="90" height="30" as="geometry" />
        </mxCell>
        <mxCell id="JtSwTdIA30WOySHyKtoY-47" style="edgeStyle=elbowEdgeStyle;rounded=0;orthogonalLoop=1;jettySize=auto;html=1;entryX=0;entryY=0.75;entryDx=0;entryDy=0;endArrow=none;endFill=0;" edge="1" parent="1" source="JtSwTdIA30WOySHyKtoY-48" target="JtSwTdIA30WOySHyKtoY-83">
          <mxGeometry relative="1" as="geometry" />
        </mxCell>
        <mxCell id="JtSwTdIA30WOySHyKtoY-48" value="Salary" style="ellipse;whiteSpace=wrap;html=1;fillColor=#76608a;fontColor=#ffffff;strokeColor=#432D57;" vertex="1" parent="1">
          <mxGeometry x="290" y="730" width="90" height="30" as="geometry" />
        </mxCell>
        <mxCell id="JtSwTdIA30WOySHyKtoY-49" style="edgeStyle=elbowEdgeStyle;rounded=0;orthogonalLoop=1;jettySize=auto;html=1;entryX=0;entryY=0.75;entryDx=0;entryDy=0;endArrow=none;endFill=0;" edge="1" parent="1" source="JtSwTdIA30WOySHyKtoY-50" target="JtSwTdIA30WOySHyKtoY-83">
          <mxGeometry relative="1" as="geometry" />
        </mxCell>
        <mxCell id="JtSwTdIA30WOySHyKtoY-50" value="Multinational" style="ellipse;whiteSpace=wrap;html=1;fillColor=#76608a;fontColor=#ffffff;strokeColor=#432D57;" vertex="1" parent="1">
          <mxGeometry x="260" y="830" width="90" height="30" as="geometry" />
        </mxCell>
        <mxCell id="JtSwTdIA30WOySHyKtoY-51" value="Exam" style="rounded=0;whiteSpace=wrap;html=1;fillColor=#e51400;fontColor=#ffffff;strokeColor=#B20000;" vertex="1" parent="1">
          <mxGeometry x="805" y="150" width="120" height="60" as="geometry" />
        </mxCell>
        <mxCell id="JtSwTdIA30WOySHyKtoY-52" value="Ex_grade" style="ellipse;whiteSpace=wrap;html=1;fillColor=#76608a;fontColor=#ffffff;strokeColor=#432D57;" vertex="1" parent="1">
          <mxGeometry x="840" y="70" width="70" height="30" as="geometry" />
        </mxCell>
        <mxCell id="JtSwTdIA30WOySHyKtoY-53" style="edgeStyle=orthogonalEdgeStyle;rounded=0;orthogonalLoop=1;jettySize=auto;html=1;entryX=1;entryY=0.25;entryDx=0;entryDy=0;endArrow=none;endFill=0;" edge="1" parent="1" source="JtSwTdIA30WOySHyKtoY-54" target="JtSwTdIA30WOySHyKtoY-51">
          <mxGeometry relative="1" as="geometry" />
        </mxCell>
        <mxCell id="JtSwTdIA30WOySHyKtoY-54" value="&lt;u&gt;Ex_id&lt;/u&gt;" style="ellipse;whiteSpace=wrap;html=1;fillColor=#76608a;fontColor=#ffffff;strokeColor=#432D57;" vertex="1" parent="1">
          <mxGeometry x="925" y="100" width="70" height="30" as="geometry" />
        </mxCell>
        <mxCell id="JtSwTdIA30WOySHyKtoY-55" style="edgeStyle=orthogonalEdgeStyle;rounded=0;orthogonalLoop=1;jettySize=auto;html=1;entryX=1;entryY=0.75;entryDx=0;entryDy=0;endArrow=none;endFill=0;" edge="1" parent="1" source="JtSwTdIA30WOySHyKtoY-56" target="JtSwTdIA30WOySHyKtoY-51">
          <mxGeometry relative="1" as="geometry" />
        </mxCell>
        <mxCell id="JtSwTdIA30WOySHyKtoY-56" value="Ex_Date" style="ellipse;whiteSpace=wrap;html=1;fillColor=#76608a;fontColor=#ffffff;strokeColor=#432D57;" vertex="1" parent="1">
          <mxGeometry x="958" y="180" width="82" height="30" as="geometry" />
        </mxCell>
        <mxCell id="JtSwTdIA30WOySHyKtoY-57" style="edgeStyle=orthogonalEdgeStyle;rounded=0;orthogonalLoop=1;jettySize=auto;html=1;entryX=1;entryY=0.5;entryDx=0;entryDy=0;endArrow=none;endFill=0;" edge="1" parent="1" source="JtSwTdIA30WOySHyKtoY-58" target="JtSwTdIA30WOySHyKtoY-30">
          <mxGeometry relative="1" as="geometry" />
        </mxCell>
        <mxCell id="JtSwTdIA30WOySHyKtoY-58" value="Rightchoice" style="ellipse;whiteSpace=wrap;html=1;fillColor=#76608a;fontColor=#ffffff;strokeColor=#432D57;" vertex="1" parent="1">
          <mxGeometry x="785.07" y="-100" width="90" height="30" as="geometry" />
        </mxCell>
        <mxCell id="JtSwTdIA30WOySHyKtoY-59" style="edgeStyle=orthogonalEdgeStyle;rounded=0;orthogonalLoop=1;jettySize=auto;html=1;entryX=1;entryY=0.5;entryDx=0;entryDy=0;endArrow=none;endFill=0;" edge="1" parent="1" source="JtSwTdIA30WOySHyKtoY-60" target="JtSwTdIA30WOySHyKtoY-188">
          <mxGeometry relative="1" as="geometry">
            <Array as="points">
              <mxPoint x="1125" y="600" />
              <mxPoint x="1125" y="640" />
            </Array>
          </mxGeometry>
        </mxCell>
        <mxCell id="JtSwTdIA30WOySHyKtoY-60" value="Instuctor" style="rounded=0;whiteSpace=wrap;html=1;fillColor=#e51400;fontColor=#ffffff;strokeColor=#B20000;" vertex="1" parent="1">
          <mxGeometry x="1180" y="546" width="120" height="60" as="geometry" />
        </mxCell>
        <mxCell id="JtSwTdIA30WOySHyKtoY-61" style="edgeStyle=elbowEdgeStyle;rounded=0;orthogonalLoop=1;jettySize=auto;html=1;entryX=0.909;entryY=0.018;entryDx=0;entryDy=0;entryPerimeter=0;endArrow=none;endFill=0;" edge="1" parent="1" source="JtSwTdIA30WOySHyKtoY-27" target="JtSwTdIA30WOySHyKtoY-26">
          <mxGeometry relative="1" as="geometry" />
        </mxCell>
        <mxCell id="JtSwTdIA30WOySHyKtoY-62" style="edgeStyle=orthogonalEdgeStyle;rounded=0;orthogonalLoop=1;jettySize=auto;html=1;entryX=0;entryY=0.5;entryDx=0;entryDy=0;endArrow=none;endFill=0;shape=link;" edge="1" parent="1" source="JtSwTdIA30WOySHyKtoY-63" target="JtSwTdIA30WOySHyKtoY-30">
          <mxGeometry relative="1" as="geometry" />
        </mxCell>
        <mxCell id="JtSwTdIA30WOySHyKtoY-63" value="Has" style="rhombus;whiteSpace=wrap;html=1;fillColor=#f0a30a;fontColor=#000000;strokeColor=#BD7000;" vertex="1" parent="1">
          <mxGeometry x="549" y="-40" width="80" height="80" as="geometry" />
        </mxCell>
        <mxCell id="JtSwTdIA30WOySHyKtoY-64" style="edgeStyle=orthogonalEdgeStyle;rounded=0;orthogonalLoop=1;jettySize=auto;html=1;entryX=0;entryY=0.75;entryDx=0;entryDy=0;endArrow=none;endFill=0;" edge="1" parent="1" source="JtSwTdIA30WOySHyKtoY-65" target="JtSwTdIA30WOySHyKtoY-5">
          <mxGeometry relative="1" as="geometry" />
        </mxCell>
        <mxCell id="JtSwTdIA30WOySHyKtoY-65" value="Course_Description" style="ellipse;whiteSpace=wrap;html=1;fillColor=#76608a;fontColor=#ffffff;strokeColor=#432D57;" vertex="1" parent="1">
          <mxGeometry x="-110" y="90" width="120" height="30" as="geometry" />
        </mxCell>
        <mxCell id="JtSwTdIA30WOySHyKtoY-66" style="edgeStyle=orthogonalEdgeStyle;rounded=0;orthogonalLoop=1;jettySize=auto;html=1;entryX=0.199;entryY=-0.042;entryDx=0;entryDy=0;entryPerimeter=0;endArrow=none;endFill=0;" edge="1" parent="1" source="JtSwTdIA30WOySHyKtoY-31" target="JtSwTdIA30WOySHyKtoY-30">
          <mxGeometry relative="1" as="geometry" />
        </mxCell>
        <mxCell id="JtSwTdIA30WOySHyKtoY-67" style="edgeStyle=orthogonalEdgeStyle;rounded=0;orthogonalLoop=1;jettySize=auto;html=1;entryX=0;entryY=0.5;entryDx=0;entryDy=0;endArrow=none;endFill=0;shape=link;" edge="1" parent="1" source="JtSwTdIA30WOySHyKtoY-69" target="JtSwTdIA30WOySHyKtoY-26">
          <mxGeometry relative="1" as="geometry" />
        </mxCell>
        <mxCell id="JtSwTdIA30WOySHyKtoY-68" style="edgeStyle=orthogonalEdgeStyle;rounded=0;orthogonalLoop=1;jettySize=auto;html=1;endArrow=none;endFill=0;" edge="1" parent="1" source="JtSwTdIA30WOySHyKtoY-69" target="JtSwTdIA30WOySHyKtoY-5">
          <mxGeometry relative="1" as="geometry" />
        </mxCell>
        <mxCell id="JtSwTdIA30WOySHyKtoY-69" value="Has" style="rhombus;whiteSpace=wrap;html=1;fillColor=#f0a30a;fontColor=#000000;strokeColor=#BD7000;" vertex="1" parent="1">
          <mxGeometry x="230" y="-30" width="80" height="80" as="geometry" />
        </mxCell>
        <mxCell id="JtSwTdIA30WOySHyKtoY-70" value="Email" style="ellipse;whiteSpace=wrap;html=1;fillColor=#76608a;fontColor=#ffffff;strokeColor=#432D57;" vertex="1" parent="1">
          <mxGeometry x="170" y="305" width="60" height="30" as="geometry" />
        </mxCell>
        <mxCell id="JtSwTdIA30WOySHyKtoY-71" style="edgeStyle=orthogonalEdgeStyle;rounded=0;orthogonalLoop=1;jettySize=auto;html=1;endArrow=none;endFill=0;shape=link;" edge="1" parent="1" source="JtSwTdIA30WOySHyKtoY-73" target="JtSwTdIA30WOySHyKtoY-9">
          <mxGeometry relative="1" as="geometry" />
        </mxCell>
        <mxCell id="JtSwTdIA30WOySHyKtoY-72" style="edgeStyle=orthogonalEdgeStyle;rounded=0;orthogonalLoop=1;jettySize=auto;html=1;entryX=0.5;entryY=1;entryDx=0;entryDy=0;endArrow=none;endFill=0;exitX=0.5;exitY=0;exitDx=0;exitDy=0;" edge="1" parent="1" source="JtSwTdIA30WOySHyKtoY-73" target="JtSwTdIA30WOySHyKtoY-5">
          <mxGeometry relative="1" as="geometry">
            <mxPoint x="120" y="120" as="sourcePoint" />
          </mxGeometry>
        </mxCell>
        <mxCell id="JtSwTdIA30WOySHyKtoY-73" value="Enroll" style="rhombus;whiteSpace=wrap;html=1;fillColor=#f0a30a;fontColor=#000000;strokeColor=#BD7000;" vertex="1" parent="1">
          <mxGeometry x="70" y="120" width="80" height="80" as="geometry" />
        </mxCell>
        <mxCell id="JtSwTdIA30WOySHyKtoY-74" style="edgeStyle=orthogonalEdgeStyle;rounded=0;orthogonalLoop=1;jettySize=auto;html=1;entryX=0.75;entryY=0;entryDx=0;entryDy=0;endArrow=none;endFill=0;" edge="1" parent="1" source="JtSwTdIA30WOySHyKtoY-75" target="JtSwTdIA30WOySHyKtoY-9">
          <mxGeometry relative="1" as="geometry" />
        </mxCell>
        <mxCell id="JtSwTdIA30WOySHyKtoY-75" value="Takes" style="rhombus;whiteSpace=wrap;html=1;fillColor=#f0a30a;fontColor=#000000;strokeColor=#BD7000;" vertex="1" parent="1">
          <mxGeometry x="585" y="190" width="80" height="80" as="geometry" />
        </mxCell>
        <mxCell id="JtSwTdIA30WOySHyKtoY-76" style="edgeStyle=orthogonalEdgeStyle;rounded=0;orthogonalLoop=1;jettySize=auto;html=1;entryX=0.59;entryY=0.987;entryDx=0;entryDy=0;entryPerimeter=0;endArrow=none;endFill=0;shape=link;" edge="1" parent="1" source="JtSwTdIA30WOySHyKtoY-75" target="JtSwTdIA30WOySHyKtoY-51">
          <mxGeometry relative="1" as="geometry" />
        </mxCell>
        <mxCell id="JtSwTdIA30WOySHyKtoY-77" style="edgeStyle=orthogonalEdgeStyle;rounded=0;orthogonalLoop=1;jettySize=auto;html=1;entryX=0.5;entryY=0;entryDx=0;entryDy=0;endArrow=none;endFill=0;" edge="1" parent="1" source="JtSwTdIA30WOySHyKtoY-79" target="JtSwTdIA30WOySHyKtoY-24">
          <mxGeometry relative="1" as="geometry" />
        </mxCell>
        <mxCell id="JtSwTdIA30WOySHyKtoY-78" style="edgeStyle=orthogonalEdgeStyle;rounded=0;orthogonalLoop=1;jettySize=auto;html=1;entryX=0.25;entryY=1;entryDx=0;entryDy=0;endArrow=none;endFill=0;shape=link;" edge="1" parent="1" source="JtSwTdIA30WOySHyKtoY-79" target="JtSwTdIA30WOySHyKtoY-9">
          <mxGeometry relative="1" as="geometry" />
        </mxCell>
        <mxCell id="JtSwTdIA30WOySHyKtoY-79" value="in" style="rhombus;whiteSpace=wrap;html=1;fillColor=#f0a30a;fontColor=#000000;strokeColor=#BD7000;" vertex="1" parent="1">
          <mxGeometry x="60" y="590" width="80" height="80" as="geometry" />
        </mxCell>
        <mxCell id="JtSwTdIA30WOySHyKtoY-80" style="edgeStyle=elbowEdgeStyle;rounded=0;orthogonalLoop=1;jettySize=auto;html=1;entryX=0.122;entryY=0.979;entryDx=0;entryDy=0;entryPerimeter=0;endArrow=none;endFill=0;" edge="1" parent="1">
          <mxGeometry relative="1" as="geometry">
            <mxPoint x="40" y="834" as="sourcePoint" />
            <mxPoint x="74.6400000000001" y="812.7399999999998" as="targetPoint" />
          </mxGeometry>
        </mxCell>
        <mxCell id="JtSwTdIA30WOySHyKtoY-81" style="edgeStyle=orthogonalEdgeStyle;rounded=0;orthogonalLoop=1;jettySize=auto;html=1;entryX=0.158;entryY=0.052;entryDx=0;entryDy=0;endArrow=none;endFill=0;entryPerimeter=0;shape=link;" edge="1" parent="1" source="JtSwTdIA30WOySHyKtoY-82" target="JtSwTdIA30WOySHyKtoY-83">
          <mxGeometry relative="1" as="geometry">
            <mxPoint x="360" y="650" as="targetPoint" />
          </mxGeometry>
        </mxCell>
        <mxCell id="JtSwTdIA30WOySHyKtoY-82" value="got" style="rhombus;whiteSpace=wrap;html=1;fillColor=#f0a30a;fontColor=#000000;strokeColor=#BD7000;" vertex="1" parent="1">
          <mxGeometry x="225" y="580" width="80" height="80" as="geometry" />
        </mxCell>
        <mxCell id="JtSwTdIA30WOySHyKtoY-83" value="job" style="rounded=0;whiteSpace=wrap;html=1;fillColor=#e51400;fontColor=#ffffff;strokeColor=#B20000;" vertex="1" parent="1">
          <mxGeometry x="410" y="810" width="120" height="60" as="geometry" />
        </mxCell>
        <mxCell id="JtSwTdIA30WOySHyKtoY-84" style="edgeStyle=elbowEdgeStyle;rounded=0;orthogonalLoop=1;jettySize=auto;html=1;entryX=0;entryY=0.75;entryDx=0;entryDy=0;endArrow=none;endFill=0;" edge="1" parent="1" source="JtSwTdIA30WOySHyKtoY-85" target="JtSwTdIA30WOySHyKtoY-83">
          <mxGeometry relative="1" as="geometry" />
        </mxCell>
        <mxCell id="JtSwTdIA30WOySHyKtoY-85" value="Company_Name" style="ellipse;whiteSpace=wrap;html=1;fillColor=#76608a;fontColor=#ffffff;strokeColor=#432D57;" vertex="1" parent="1">
          <mxGeometry x="270" y="890" width="100" height="30" as="geometry" />
        </mxCell>
        <mxCell id="JtSwTdIA30WOySHyKtoY-86" value="Topic" style="rounded=0;whiteSpace=wrap;html=1;fillColor=#e51400;fontColor=#ffffff;strokeColor=#B20000;" vertex="1" parent="1">
          <mxGeometry x="20" y="-220" width="120" height="60" as="geometry" />
        </mxCell>
        <mxCell id="JtSwTdIA30WOySHyKtoY-87" style="edgeStyle=orthogonalEdgeStyle;rounded=0;orthogonalLoop=1;jettySize=auto;html=1;exitX=1;exitY=1;exitDx=0;exitDy=0;entryX=0.75;entryY=0;entryDx=0;entryDy=0;endArrow=none;endFill=0;" edge="1" parent="1" source="JtSwTdIA30WOySHyKtoY-88" target="JtSwTdIA30WOySHyKtoY-86">
          <mxGeometry relative="1" as="geometry" />
        </mxCell>
        <mxCell id="JtSwTdIA30WOySHyKtoY-88" value="Topic_name" style="ellipse;whiteSpace=wrap;html=1;fillColor=#76608a;fontColor=#ffffff;strokeColor=#432D57;" vertex="1" parent="1">
          <mxGeometry x="60" y="-280" width="80" height="40" as="geometry" />
        </mxCell>
        <mxCell id="JtSwTdIA30WOySHyKtoY-89" style="edgeStyle=elbowEdgeStyle;rounded=0;orthogonalLoop=1;jettySize=auto;html=1;entryX=0;entryY=0.25;entryDx=0;entryDy=0;endArrow=none;endFill=0;" edge="1" parent="1" source="JtSwTdIA30WOySHyKtoY-90" target="JtSwTdIA30WOySHyKtoY-86">
          <mxGeometry relative="1" as="geometry" />
        </mxCell>
        <mxCell id="JtSwTdIA30WOySHyKtoY-90" value="&lt;u&gt;Topic_id&lt;/u&gt;" style="ellipse;whiteSpace=wrap;html=1;fillColor=#76608a;fontColor=#ffffff;strokeColor=#432D57;" vertex="1" parent="1">
          <mxGeometry x="-20" y="-280" width="80" height="30" as="geometry" />
        </mxCell>
        <mxCell id="JtSwTdIA30WOySHyKtoY-91" style="edgeStyle=orthogonalEdgeStyle;rounded=0;orthogonalLoop=1;jettySize=auto;html=1;endArrow=none;endFill=0;" edge="1" parent="1" source="JtSwTdIA30WOySHyKtoY-93" target="JtSwTdIA30WOySHyKtoY-86">
          <mxGeometry relative="1" as="geometry" />
        </mxCell>
        <mxCell id="JtSwTdIA30WOySHyKtoY-92" style="edgeStyle=orthogonalEdgeStyle;rounded=0;orthogonalLoop=1;jettySize=auto;html=1;entryX=0.5;entryY=0;entryDx=0;entryDy=0;endArrow=none;endFill=0;shape=link;" edge="1" parent="1" source="JtSwTdIA30WOySHyKtoY-93">
          <mxGeometry relative="1" as="geometry">
            <mxPoint x="80" y="-20" as="targetPoint" />
          </mxGeometry>
        </mxCell>
        <mxCell id="JtSwTdIA30WOySHyKtoY-93" value="has" style="rhombus;whiteSpace=wrap;html=1;fillColor=#f0a30a;fontColor=#000000;strokeColor=#BD7000;" vertex="1" parent="1">
          <mxGeometry x="40" y="-120" width="80" height="70" as="geometry" />
        </mxCell>
        <mxCell id="JtSwTdIA30WOySHyKtoY-94" value="&lt;u&gt;Ins_Id&lt;/u&gt;" style="ellipse;whiteSpace=wrap;html=1;fillColor=#76608a;fontColor=#ffffff;strokeColor=#432D57;" vertex="1" parent="1">
          <mxGeometry x="1180" y="660" width="50" height="30" as="geometry" />
        </mxCell>
        <mxCell id="JtSwTdIA30WOySHyKtoY-95" style="edgeStyle=elbowEdgeStyle;rounded=0;orthogonalLoop=1;jettySize=auto;html=1;endArrow=none;endFill=0;fillColor=#76608a;strokeColor=#432D57;" edge="1" parent="1" source="JtSwTdIA30WOySHyKtoY-96" target="JtSwTdIA30WOySHyKtoY-60">
          <mxGeometry relative="1" as="geometry" />
        </mxCell>
        <mxCell id="JtSwTdIA30WOySHyKtoY-96" value="Ins_name" style="ellipse;whiteSpace=wrap;html=1;fillColor=#76608a;fontColor=#ffffff;strokeColor=#432D57;" vertex="1" parent="1">
          <mxGeometry x="1240" y="650" width="70" height="30" as="geometry" />
        </mxCell>
        <mxCell id="JtSwTdIA30WOySHyKtoY-97" value="Ins_degree" style="ellipse;whiteSpace=wrap;html=1;fillColor=#76608a;fontColor=#ffffff;strokeColor=#432D57;" vertex="1" parent="1">
          <mxGeometry x="1330" y="496" width="70" height="30" as="geometry" />
        </mxCell>
        <mxCell id="JtSwTdIA30WOySHyKtoY-98" style="edgeStyle=elbowEdgeStyle;rounded=0;orthogonalLoop=1;jettySize=auto;html=1;entryX=1;entryY=0.75;entryDx=0;entryDy=0;endArrow=none;endFill=0;" edge="1" parent="1" source="JtSwTdIA30WOySHyKtoY-99" target="JtSwTdIA30WOySHyKtoY-60">
          <mxGeometry relative="1" as="geometry" />
        </mxCell>
        <mxCell id="JtSwTdIA30WOySHyKtoY-99" value="salary" style="ellipse;whiteSpace=wrap;html=1;fillColor=#76608a;fontColor=#ffffff;strokeColor=#432D57;" vertex="1" parent="1">
          <mxGeometry x="1340" y="556" width="70" height="30" as="geometry" />
        </mxCell>
        <mxCell id="JtSwTdIA30WOySHyKtoY-100" style="edgeStyle=orthogonalEdgeStyle;rounded=0;orthogonalLoop=1;jettySize=auto;html=1;endArrow=none;endFill=0;fillColor=#76608a;strokeColor=#432D57;entryX=0.341;entryY=1.031;entryDx=0;entryDy=0;entryPerimeter=0;" edge="1" parent="1" source="JtSwTdIA30WOySHyKtoY-94" target="JtSwTdIA30WOySHyKtoY-60">
          <mxGeometry relative="1" as="geometry">
            <mxPoint x="1201.25" y="540" as="targetPoint" />
          </mxGeometry>
        </mxCell>
        <mxCell id="JtSwTdIA30WOySHyKtoY-101" style="edgeStyle=elbowEdgeStyle;rounded=0;orthogonalLoop=1;jettySize=auto;html=1;entryX=0.992;entryY=0.149;entryDx=0;entryDy=0;entryPerimeter=0;endArrow=none;endFill=0;fillColor=#76608a;strokeColor=#432D57;" edge="1" parent="1" source="JtSwTdIA30WOySHyKtoY-97" target="JtSwTdIA30WOySHyKtoY-60">
          <mxGeometry relative="1" as="geometry" />
        </mxCell>
        <mxCell id="JtSwTdIA30WOySHyKtoY-102" value="Department" style="rounded=0;whiteSpace=wrap;html=1;fillColor=#e51400;fontColor=#ffffff;strokeColor=#B20000;" vertex="1" parent="1">
          <mxGeometry x="760" y="556" width="120" height="60" as="geometry" />
        </mxCell>
        <mxCell id="JtSwTdIA30WOySHyKtoY-103" value="&lt;u&gt;Dep_Id&lt;/u&gt;" style="ellipse;whiteSpace=wrap;html=1;fillColor=#76608a;fontColor=#ffffff;strokeColor=#432D57;" vertex="1" parent="1">
          <mxGeometry x="760" y="506" width="50" height="30" as="geometry" />
        </mxCell>
        <mxCell id="JtSwTdIA30WOySHyKtoY-104" style="edgeStyle=orthogonalEdgeStyle;rounded=0;orthogonalLoop=1;jettySize=auto;html=1;endArrow=none;endFill=0;fillColor=#76608a;strokeColor=#432D57;" edge="1" parent="1" source="JtSwTdIA30WOySHyKtoY-105" target="JtSwTdIA30WOySHyKtoY-102">
          <mxGeometry relative="1" as="geometry" />
        </mxCell>
        <mxCell id="JtSwTdIA30WOySHyKtoY-105" value="Dep_name" style="ellipse;whiteSpace=wrap;html=1;fillColor=#76608a;fontColor=#ffffff;strokeColor=#432D57;" vertex="1" parent="1">
          <mxGeometry x="810" y="506" width="70" height="30" as="geometry" />
        </mxCell>
        <mxCell id="JtSwTdIA30WOySHyKtoY-106" value="Dep_manger" style="ellipse;whiteSpace=wrap;html=1;fillColor=#76608a;fontColor=#ffffff;strokeColor=#432D57;" vertex="1" parent="1">
          <mxGeometry x="910" y="506" width="70" height="30" as="geometry" />
        </mxCell>
        <mxCell id="JtSwTdIA30WOySHyKtoY-107" style="edgeStyle=elbowEdgeStyle;rounded=0;orthogonalLoop=1;jettySize=auto;html=1;entryX=0.25;entryY=1;entryDx=0;entryDy=0;endArrow=none;endFill=0;" edge="1" parent="1" source="JtSwTdIA30WOySHyKtoY-108" target="JtSwTdIA30WOySHyKtoY-102">
          <mxGeometry relative="1" as="geometry" />
        </mxCell>
        <mxCell id="JtSwTdIA30WOySHyKtoY-108" value="Dep_mangerhiredate" style="ellipse;whiteSpace=wrap;html=1;fillColor=#76608a;fontColor=#ffffff;strokeColor=#432D57;" vertex="1" parent="1">
          <mxGeometry x="645.0699999999999" y="650" width="120" height="30" as="geometry" />
        </mxCell>
        <mxCell id="JtSwTdIA30WOySHyKtoY-109" style="edgeStyle=orthogonalEdgeStyle;rounded=0;orthogonalLoop=1;jettySize=auto;html=1;endArrow=none;endFill=0;fillColor=#76608a;strokeColor=#432D57;" edge="1" parent="1" source="JtSwTdIA30WOySHyKtoY-103">
          <mxGeometry relative="1" as="geometry">
            <mxPoint x="787.5" y="556" as="targetPoint" />
          </mxGeometry>
        </mxCell>
        <mxCell id="JtSwTdIA30WOySHyKtoY-110" style="edgeStyle=elbowEdgeStyle;rounded=0;orthogonalLoop=1;jettySize=auto;html=1;entryX=0.992;entryY=0.149;entryDx=0;entryDy=0;entryPerimeter=0;endArrow=none;endFill=0;fillColor=#76608a;strokeColor=#432D57;" edge="1" parent="1" source="JtSwTdIA30WOySHyKtoY-106" target="JtSwTdIA30WOySHyKtoY-102">
          <mxGeometry relative="1" as="geometry" />
        </mxCell>
        <mxCell id="JtSwTdIA30WOySHyKtoY-111" style="edgeStyle=orthogonalEdgeStyle;rounded=0;orthogonalLoop=1;jettySize=auto;html=1;entryX=0;entryY=0.5;entryDx=0;entryDy=0;endArrow=none;endFill=0;" edge="1" parent="1" source="JtSwTdIA30WOySHyKtoY-113" target="JtSwTdIA30WOySHyKtoY-102">
          <mxGeometry relative="1" as="geometry" />
        </mxCell>
        <mxCell id="JtSwTdIA30WOySHyKtoY-112" style="edgeStyle=orthogonalEdgeStyle;rounded=0;orthogonalLoop=1;jettySize=auto;html=1;entryX=1;entryY=0.5;entryDx=0;entryDy=0;endArrow=none;endFill=0;shape=link;" edge="1" parent="1" source="JtSwTdIA30WOySHyKtoY-113" target="JtSwTdIA30WOySHyKtoY-9">
          <mxGeometry relative="1" as="geometry" />
        </mxCell>
        <mxCell id="JtSwTdIA30WOySHyKtoY-113" value="in" style="rhombus;whiteSpace=wrap;html=1;fillColor=#f0a30a;fontColor=#000000;strokeColor=#BD7000;" vertex="1" parent="1">
          <mxGeometry x="540" y="460" width="60" height="60" as="geometry" />
        </mxCell>
        <mxCell id="JtSwTdIA30WOySHyKtoY-114" style="edgeStyle=orthogonalEdgeStyle;rounded=0;orthogonalLoop=1;jettySize=auto;html=1;endArrow=none;endFill=0;shape=link;" edge="1" parent="1" source="JtSwTdIA30WOySHyKtoY-116" target="JtSwTdIA30WOySHyKtoY-60">
          <mxGeometry relative="1" as="geometry" />
        </mxCell>
        <mxCell id="JtSwTdIA30WOySHyKtoY-115" style="edgeStyle=orthogonalEdgeStyle;rounded=0;orthogonalLoop=1;jettySize=auto;html=1;endArrow=none;endFill=0;" edge="1" parent="1" source="JtSwTdIA30WOySHyKtoY-116" target="JtSwTdIA30WOySHyKtoY-102">
          <mxGeometry relative="1" as="geometry" />
        </mxCell>
        <mxCell id="JtSwTdIA30WOySHyKtoY-116" value="works" style="rhombus;whiteSpace=wrap;html=1;fillColor=#f0a30a;fontColor=#000000;strokeColor=#BD7000;" vertex="1" parent="1">
          <mxGeometry x="1010" y="546" width="60" height="60" as="geometry" />
        </mxCell>
        <mxCell id="JtSwTdIA30WOySHyKtoY-117" style="edgeStyle=elbowEdgeStyle;rounded=0;orthogonalLoop=1;jettySize=auto;html=1;entryX=0;entryY=1;entryDx=0;entryDy=0;endArrow=none;endFill=0;" edge="1" parent="1" source="JtSwTdIA30WOySHyKtoY-118" target="JtSwTdIA30WOySHyKtoY-83">
          <mxGeometry relative="1" as="geometry" />
        </mxCell>
        <mxCell id="JtSwTdIA30WOySHyKtoY-118" value="&lt;u&gt;Company_ID&lt;/u&gt;" style="ellipse;whiteSpace=wrap;html=1;fillColor=#76608a;fontColor=#ffffff;strokeColor=#432D57;" vertex="1" parent="1">
          <mxGeometry x="270" y="940" width="100" height="30" as="geometry" />
        </mxCell>
        <mxCell id="JtSwTdIA30WOySHyKtoY-119" style="edgeStyle=orthogonalEdgeStyle;rounded=0;orthogonalLoop=1;jettySize=auto;html=1;entryX=0.25;entryY=0;entryDx=0;entryDy=0;endArrow=none;endFill=0;shape=link;" edge="1" parent="1" target="JtSwTdIA30WOySHyKtoY-38">
          <mxGeometry relative="1" as="geometry">
            <mxPoint x="665.0033333333333" y="740.0366666666666" as="sourcePoint" />
          </mxGeometry>
        </mxCell>
        <mxCell id="JtSwTdIA30WOySHyKtoY-120" value="perform" style="rhombus;whiteSpace=wrap;html=1;fillColor=#f0a30a;fontColor=#000000;strokeColor=#BD7000;" vertex="1" parent="1">
          <mxGeometry x="605" y="709.97" width="60" height="60" as="geometry" />
        </mxCell>
        <mxCell id="JtSwTdIA30WOySHyKtoY-121" style="edgeStyle=orthogonalEdgeStyle;rounded=0;orthogonalLoop=1;jettySize=auto;html=1;entryX=0.591;entryY=0.022;entryDx=0;entryDy=0;entryPerimeter=0;endArrow=none;endFill=0;" edge="1" parent="1" source="JtSwTdIA30WOySHyKtoY-52" target="JtSwTdIA30WOySHyKtoY-51">
          <mxGeometry relative="1" as="geometry" />
        </mxCell>
        <mxCell id="JtSwTdIA30WOySHyKtoY-122" value="M" style="text;html=1;align=center;verticalAlign=middle;whiteSpace=wrap;rounded=0;" vertex="1" parent="1">
          <mxGeometry x="45" y="-40" width="30" height="10" as="geometry" />
        </mxCell>
        <mxCell id="JtSwTdIA30WOySHyKtoY-123" value="1" style="text;html=1;align=center;verticalAlign=middle;whiteSpace=wrap;rounded=0;" vertex="1" parent="1">
          <mxGeometry x="45" y="-150" width="30" height="10" as="geometry" />
        </mxCell>
        <mxCell id="JtSwTdIA30WOySHyKtoY-124" style="edgeStyle=orthogonalEdgeStyle;rounded=0;orthogonalLoop=1;jettySize=auto;html=1;endArrow=none;endFill=0;shape=link;" edge="1" parent="1" source="JtSwTdIA30WOySHyKtoY-63">
          <mxGeometry relative="1" as="geometry">
            <mxPoint x="484" y="3" as="targetPoint" />
          </mxGeometry>
        </mxCell>
        <mxCell id="JtSwTdIA30WOySHyKtoY-125" value="1" style="text;html=1;align=center;verticalAlign=middle;whiteSpace=wrap;rounded=0;" vertex="1" parent="1">
          <mxGeometry x="480" y="-10" width="30" height="10" as="geometry" />
        </mxCell>
        <mxCell id="JtSwTdIA30WOySHyKtoY-126" value="M" style="text;html=1;align=center;verticalAlign=middle;whiteSpace=wrap;rounded=0;" vertex="1" parent="1">
          <mxGeometry x="650" y="-20" width="30" height="10" as="geometry" />
        </mxCell>
        <mxCell id="JtSwTdIA30WOySHyKtoY-127" value="M" style="text;html=1;align=center;verticalAlign=middle;whiteSpace=wrap;rounded=0;" vertex="1" parent="1">
          <mxGeometry x="75" y="50" width="30" height="10" as="geometry" />
        </mxCell>
        <mxCell id="JtSwTdIA30WOySHyKtoY-128" value="M" style="text;html=1;align=center;verticalAlign=middle;whiteSpace=wrap;rounded=0;" vertex="1" parent="1">
          <mxGeometry x="225" y="400" width="30" height="10" as="geometry" />
        </mxCell>
        <mxCell id="JtSwTdIA30WOySHyKtoY-129" style="edgeStyle=orthogonalEdgeStyle;rounded=0;orthogonalLoop=1;jettySize=auto;html=1;endArrow=none;endFill=0;" edge="1" parent="1" source="JtSwTdIA30WOySHyKtoY-130" target="JtSwTdIA30WOySHyKtoY-73">
          <mxGeometry relative="1" as="geometry" />
        </mxCell>
        <mxCell id="JtSwTdIA30WOySHyKtoY-130" value="Grade" style="ellipse;whiteSpace=wrap;html=1;fillColor=#76608a;fontColor=#ffffff;strokeColor=#432D57;" vertex="1" parent="1">
          <mxGeometry x="-20" y="200" width="50" height="30" as="geometry" />
        </mxCell>
        <mxCell id="JtSwTdIA30WOySHyKtoY-131" value="M" style="text;html=1;align=center;verticalAlign=middle;whiteSpace=wrap;rounded=0;" vertex="1" parent="1">
          <mxGeometry x="835" y="214" width="30" height="10" as="geometry" />
        </mxCell>
        <mxCell id="JtSwTdIA30WOySHyKtoY-132" value="M" style="text;html=1;align=center;verticalAlign=middle;whiteSpace=wrap;rounded=0;" vertex="1" parent="1">
          <mxGeometry x="420" y="45" width="30" height="10" as="geometry" />
        </mxCell>
        <mxCell id="JtSwTdIA30WOySHyKtoY-133" value="1" style="text;html=1;align=center;verticalAlign=middle;whiteSpace=wrap;rounded=0;" vertex="1" parent="1">
          <mxGeometry x="245" y="400" width="30" height="10" as="geometry" />
        </mxCell>
        <mxCell id="JtSwTdIA30WOySHyKtoY-134" style="edgeStyle=orthogonalEdgeStyle;rounded=0;orthogonalLoop=1;jettySize=auto;html=1;entryX=0.5;entryY=1;entryDx=0;entryDy=0;endArrow=none;endFill=0;" edge="1" parent="1" source="JtSwTdIA30WOySHyKtoY-135" target="JtSwTdIA30WOySHyKtoY-75">
          <mxGeometry relative="1" as="geometry" />
        </mxCell>
        <mxCell id="JtSwTdIA30WOySHyKtoY-135" value="st_&lt;span style=&quot;background-color: initial;&quot;&gt;answer&lt;/span&gt;" style="ellipse;whiteSpace=wrap;html=1;fillColor=#76608a;fontColor=#ffffff;strokeColor=#432D57;" vertex="1" parent="1">
          <mxGeometry x="485" y="275" width="90" height="30" as="geometry" />
        </mxCell>
        <mxCell id="JtSwTdIA30WOySHyKtoY-136" value="M" style="text;html=1;align=center;verticalAlign=middle;whiteSpace=wrap;rounded=0;" vertex="1" parent="1">
          <mxGeometry x="345" y="430" width="30" height="10" as="geometry" />
        </mxCell>
        <mxCell id="JtSwTdIA30WOySHyKtoY-137" value="1" style="text;html=1;align=center;verticalAlign=middle;whiteSpace=wrap;rounded=0;" vertex="1" parent="1">
          <mxGeometry x="720" y="571" width="30" height="10" as="geometry" />
        </mxCell>
        <mxCell id="JtSwTdIA30WOySHyKtoY-138" value="M" style="text;html=1;align=center;verticalAlign=middle;whiteSpace=wrap;rounded=0;" vertex="1" parent="1">
          <mxGeometry x="1145" y="561" width="30" height="10" as="geometry" />
        </mxCell>
        <mxCell id="JtSwTdIA30WOySHyKtoY-139" value="1" style="text;html=1;align=center;verticalAlign=middle;whiteSpace=wrap;rounded=0;" vertex="1" parent="1">
          <mxGeometry x="885.07" y="576" width="30" height="10" as="geometry" />
        </mxCell>
        <mxCell id="JtSwTdIA30WOySHyKtoY-140" value="M" style="text;html=1;align=center;verticalAlign=middle;whiteSpace=wrap;rounded=0;" vertex="1" parent="1">
          <mxGeometry x="210" y="480" width="30" height="10" as="geometry" />
        </mxCell>
        <mxCell id="JtSwTdIA30WOySHyKtoY-141" value="1" style="text;html=1;align=center;verticalAlign=middle;whiteSpace=wrap;rounded=0;" vertex="1" parent="1">
          <mxGeometry x="120" y="734.97" width="30" height="10" as="geometry" />
        </mxCell>
        <mxCell id="JtSwTdIA30WOySHyKtoY-142" value="1" style="text;html=1;align=center;verticalAlign=middle;whiteSpace=wrap;rounded=0;" vertex="1" parent="1">
          <mxGeometry x="390" y="700" width="30" height="10" as="geometry" />
        </mxCell>
        <mxCell id="JtSwTdIA30WOySHyKtoY-143" value="1" style="text;html=1;align=center;verticalAlign=middle;whiteSpace=wrap;rounded=0;" vertex="1" parent="1">
          <mxGeometry x="261" y="486" width="30" height="10" as="geometry" />
        </mxCell>
        <mxCell id="JtSwTdIA30WOySHyKtoY-144" value="1" style="text;html=1;align=center;verticalAlign=middle;whiteSpace=wrap;rounded=0;" vertex="1" parent="1">
          <mxGeometry x="810" y="806.97" width="30" height="10" as="geometry" />
        </mxCell>
        <mxCell id="JtSwTdIA30WOySHyKtoY-145" value="1" style="text;html=1;align=center;verticalAlign=middle;whiteSpace=wrap;rounded=0;" vertex="1" parent="1">
          <mxGeometry x="315" y="495" width="30" height="10" as="geometry" />
        </mxCell>
        <mxCell id="JtSwTdIA30WOySHyKtoY-146" style="edgeStyle=orthogonalEdgeStyle;rounded=0;orthogonalLoop=1;jettySize=auto;html=1;entryX=0;entryY=0.75;entryDx=0;entryDy=0;endArrow=none;endFill=0;" edge="1" parent="1" source="JtSwTdIA30WOySHyKtoY-147" target="JtSwTdIA30WOySHyKtoY-26">
          <mxGeometry relative="1" as="geometry" />
        </mxCell>
        <mxCell id="JtSwTdIA30WOySHyKtoY-147" value="Type" style="ellipse;whiteSpace=wrap;html=1;fillColor=#76608a;fontColor=#ffffff;strokeColor=#432D57;" vertex="1" parent="1">
          <mxGeometry x="295" y="60" width="90" height="30" as="geometry" />
        </mxCell>
        <mxCell id="JtSwTdIA30WOySHyKtoY-148" style="edgeStyle=orthogonalEdgeStyle;rounded=0;orthogonalLoop=1;jettySize=auto;html=1;endArrow=none;endFill=0;" edge="1" parent="1" source="JtSwTdIA30WOySHyKtoY-149" target="JtSwTdIA30WOySHyKtoY-30">
          <mxGeometry relative="1" as="geometry" />
        </mxCell>
        <mxCell id="JtSwTdIA30WOySHyKtoY-149" value="&lt;u&gt;choice-id&lt;/u&gt;" style="ellipse;whiteSpace=wrap;html=1;fillColor=#76608a;fontColor=#ffffff;strokeColor=#432D57;" vertex="1" parent="1">
          <mxGeometry x="845" y="-15" width="90" height="30" as="geometry" />
        </mxCell>
        <mxCell id="JtSwTdIA30WOySHyKtoY-150" value="client-name" style="ellipse;whiteSpace=wrap;html=1;fillColor=#76608a;fontColor=#ffffff;strokeColor=#432D57;" vertex="1" parent="1">
          <mxGeometry x="958" y="809.97" width="90" height="30" as="geometry" />
        </mxCell>
        <mxCell id="JtSwTdIA30WOySHyKtoY-151" style="edgeStyle=elbowEdgeStyle;rounded=0;orthogonalLoop=1;jettySize=auto;html=1;entryX=1;entryY=0.75;entryDx=0;entryDy=0;endArrow=none;endFill=0;" edge="1" parent="1" source="JtSwTdIA30WOySHyKtoY-152" target="JtSwTdIA30WOySHyKtoY-38">
          <mxGeometry relative="1" as="geometry" />
        </mxCell>
        <mxCell id="JtSwTdIA30WOySHyKtoY-152" value="client-country" style="ellipse;whiteSpace=wrap;html=1;fillColor=#76608a;fontColor=#ffffff;strokeColor=#432D57;" vertex="1" parent="1">
          <mxGeometry x="965.0699999999999" y="850" width="90" height="30" as="geometry" />
        </mxCell>
        <mxCell id="JtSwTdIA30WOySHyKtoY-153" style="edgeStyle=elbowEdgeStyle;rounded=0;orthogonalLoop=1;jettySize=auto;html=1;endArrow=none;endFill=0;" edge="1" parent="1" source="JtSwTdIA30WOySHyKtoY-154">
          <mxGeometry relative="1" as="geometry">
            <mxPoint x="890" y="880" as="targetPoint" />
          </mxGeometry>
        </mxCell>
        <mxCell id="JtSwTdIA30WOySHyKtoY-154" value="budget" style="ellipse;whiteSpace=wrap;html=1;fillColor=#76608a;fontColor=#ffffff;strokeColor=#432D57;" vertex="1" parent="1">
          <mxGeometry x="975" y="895" width="90" height="30" as="geometry" />
        </mxCell>
        <mxCell id="JtSwTdIA30WOySHyKtoY-155" value="1" style="text;html=1;align=center;verticalAlign=middle;whiteSpace=wrap;rounded=0;" vertex="1" parent="1">
          <mxGeometry x="180" y="-5" width="30" height="10" as="geometry" />
        </mxCell>
        <mxCell id="JtSwTdIA30WOySHyKtoY-156" value="M" style="text;html=1;align=center;verticalAlign=middle;whiteSpace=wrap;rounded=0;" vertex="1" parent="1">
          <mxGeometry x="325" y="-5" width="30" height="10" as="geometry" />
        </mxCell>
        <mxCell id="JtSwTdIA30WOySHyKtoY-157" style="edgeStyle=orthogonalEdgeStyle;rounded=0;orthogonalLoop=1;jettySize=auto;html=1;endArrow=none;endFill=0;shape=link;" edge="1" parent="1" source="JtSwTdIA30WOySHyKtoY-158" target="JtSwTdIA30WOySHyKtoY-164">
          <mxGeometry relative="1" as="geometry" />
        </mxCell>
        <mxCell id="JtSwTdIA30WOySHyKtoY-158" value="Track" style="rounded=0;whiteSpace=wrap;html=1;fillColor=#e51400;fontColor=#ffffff;strokeColor=#B20000;" vertex="1" parent="1">
          <mxGeometry x="-240" y="431" width="120" height="60" as="geometry" />
        </mxCell>
        <mxCell id="JtSwTdIA30WOySHyKtoY-159" style="edgeStyle=orthogonalEdgeStyle;rounded=0;orthogonalLoop=1;jettySize=auto;html=1;entryX=0;entryY=0.5;entryDx=0;entryDy=0;endArrow=none;endFill=0;" edge="1" parent="1" source="JtSwTdIA30WOySHyKtoY-160" target="JtSwTdIA30WOySHyKtoY-158">
          <mxGeometry relative="1" as="geometry" />
        </mxCell>
        <mxCell id="JtSwTdIA30WOySHyKtoY-160" value="track-name" style="ellipse;whiteSpace=wrap;html=1;fillColor=#76608a;fontColor=#ffffff;strokeColor=#432D57;" vertex="1" parent="1">
          <mxGeometry x="-350" y="445" width="70" height="30" as="geometry" />
        </mxCell>
        <mxCell id="JtSwTdIA30WOySHyKtoY-161" style="edgeStyle=orthogonalEdgeStyle;rounded=0;orthogonalLoop=1;jettySize=auto;html=1;entryX=0.25;entryY=0;entryDx=0;entryDy=0;endArrow=none;endFill=0;" edge="1" parent="1" source="JtSwTdIA30WOySHyKtoY-162" target="JtSwTdIA30WOySHyKtoY-158">
          <mxGeometry relative="1" as="geometry" />
        </mxCell>
        <mxCell id="JtSwTdIA30WOySHyKtoY-162" value="&lt;u&gt;track-id&lt;/u&gt;" style="ellipse;whiteSpace=wrap;html=1;fillColor=#76608a;fontColor=#ffffff;strokeColor=#432D57;" vertex="1" parent="1">
          <mxGeometry x="-240" y="345" width="60" height="30" as="geometry" />
        </mxCell>
        <mxCell id="JtSwTdIA30WOySHyKtoY-163" style="edgeStyle=orthogonalEdgeStyle;rounded=0;orthogonalLoop=1;jettySize=auto;html=1;entryX=0;entryY=0.75;entryDx=0;entryDy=0;endArrow=none;endFill=0;shape=link;" edge="1" parent="1" source="JtSwTdIA30WOySHyKtoY-164" target="JtSwTdIA30WOySHyKtoY-24">
          <mxGeometry relative="1" as="geometry" />
        </mxCell>
        <mxCell id="JtSwTdIA30WOySHyKtoY-164" value="exist" style="rhombus;whiteSpace=wrap;html=1;fillColor=#f0a30a;fontColor=#000000;strokeColor=#BD7000;" vertex="1" parent="1">
          <mxGeometry x="-220" y="629.97" width="80" height="80" as="geometry" />
        </mxCell>
        <mxCell id="JtSwTdIA30WOySHyKtoY-165" style="edgeStyle=orthogonalEdgeStyle;rounded=0;orthogonalLoop=1;jettySize=auto;html=1;entryX=1;entryY=0.75;entryDx=0;entryDy=0;endArrow=none;endFill=0;" edge="1" parent="1" source="JtSwTdIA30WOySHyKtoY-167" target="JtSwTdIA30WOySHyKtoY-158">
          <mxGeometry relative="1" as="geometry" />
        </mxCell>
        <mxCell id="JtSwTdIA30WOySHyKtoY-166" style="edgeStyle=orthogonalEdgeStyle;rounded=0;orthogonalLoop=1;jettySize=auto;html=1;entryX=0;entryY=0.5;entryDx=0;entryDy=0;endArrow=none;endFill=0;shape=link;" edge="1" parent="1" source="JtSwTdIA30WOySHyKtoY-167" target="JtSwTdIA30WOySHyKtoY-9">
          <mxGeometry relative="1" as="geometry" />
        </mxCell>
        <mxCell id="JtSwTdIA30WOySHyKtoY-167" value="study" style="rhombus;whiteSpace=wrap;html=1;fillColor=#f0a30a;fontColor=#000000;strokeColor=#BD7000;" vertex="1" parent="1">
          <mxGeometry x="-80" y="436" width="80" height="80" as="geometry" />
        </mxCell>
        <mxCell id="JtSwTdIA30WOySHyKtoY-168" value="" style="edgeStyle=orthogonalEdgeStyle;rounded=0;orthogonalLoop=1;jettySize=auto;html=1;exitX=0;exitY=0.5;exitDx=0;exitDy=0;endArrow=none;endFill=0;" edge="1" parent="1" source="JtSwTdIA30WOySHyKtoY-9" target="JtSwTdIA30WOySHyKtoY-191">
          <mxGeometry relative="1" as="geometry">
            <Array as="points">
              <mxPoint x="130" y="445" />
              <mxPoint x="130" y="460" />
              <mxPoint x="43" y="460" />
            </Array>
          </mxGeometry>
        </mxCell>
        <mxCell id="JtSwTdIA30WOySHyKtoY-169" value="M" style="text;html=1;align=center;verticalAlign=middle;whiteSpace=wrap;rounded=0;" vertex="1" parent="1">
          <mxGeometry x="95" y="430" width="30" height="10" as="geometry" />
        </mxCell>
        <mxCell id="JtSwTdIA30WOySHyKtoY-170" value="1" style="text;html=1;align=center;verticalAlign=middle;whiteSpace=wrap;rounded=0;" vertex="1" parent="1">
          <mxGeometry x="-130" y="450" width="30" height="10" as="geometry" />
        </mxCell>
        <mxCell id="JtSwTdIA30WOySHyKtoY-171" value="M" style="text;html=1;align=center;verticalAlign=middle;whiteSpace=wrap;rounded=0;" vertex="1" parent="1">
          <mxGeometry x="20" y="779.97" width="30" height="10" as="geometry" />
        </mxCell>
        <mxCell id="JtSwTdIA30WOySHyKtoY-172" value="M" style="text;html=1;align=center;verticalAlign=middle;whiteSpace=wrap;rounded=0;" vertex="1" parent="1">
          <mxGeometry x="-186" y="503" width="30" height="10" as="geometry" />
        </mxCell>
        <mxCell id="JtSwTdIA30WOySHyKtoY-173" style="edgeStyle=orthogonalEdgeStyle;rounded=0;orthogonalLoop=1;jettySize=auto;html=1;shape=link;" edge="1" parent="1" source="JtSwTdIA30WOySHyKtoY-175" target="JtSwTdIA30WOySHyKtoY-51">
          <mxGeometry relative="1" as="geometry" />
        </mxCell>
        <mxCell id="JtSwTdIA30WOySHyKtoY-174" style="edgeStyle=orthogonalEdgeStyle;rounded=0;orthogonalLoop=1;jettySize=auto;html=1;entryX=1;entryY=1;entryDx=0;entryDy=0;endArrow=none;endFill=0;" edge="1" parent="1" source="JtSwTdIA30WOySHyKtoY-175" target="JtSwTdIA30WOySHyKtoY-5">
          <mxGeometry relative="1" as="geometry" />
        </mxCell>
        <mxCell id="JtSwTdIA30WOySHyKtoY-175" value="Has" style="rhombus;whiteSpace=wrap;html=1;fillColor=#f0a30a;fontColor=#000000;strokeColor=#BD7000;" vertex="1" parent="1">
          <mxGeometry x="485" y="100" width="65" height="80" as="geometry" />
        </mxCell>
        <mxCell id="JtSwTdIA30WOySHyKtoY-176" value="1" style="text;html=1;align=center;verticalAlign=middle;whiteSpace=wrap;rounded=0;" vertex="1" parent="1">
          <mxGeometry x="130" y="50" width="40" height="10" as="geometry" />
        </mxCell>
        <mxCell id="JtSwTdIA30WOySHyKtoY-177" value="M" style="text;html=1;align=center;verticalAlign=middle;whiteSpace=wrap;rounded=0;" vertex="1" parent="1">
          <mxGeometry x="720" y="150" width="60" height="30" as="geometry" />
        </mxCell>
        <mxCell id="JtSwTdIA30WOySHyKtoY-178" style="edgeStyle=orthogonalEdgeStyle;rounded=0;orthogonalLoop=1;jettySize=auto;html=1;entryX=0;entryY=0.25;entryDx=0;entryDy=0;endArrow=none;endFill=0;" edge="1" parent="1" source="JtSwTdIA30WOySHyKtoY-181" target="JtSwTdIA30WOySHyKtoY-60">
          <mxGeometry relative="1" as="geometry">
            <Array as="points">
              <mxPoint x="1018" y="380" />
              <mxPoint x="1018" y="540" />
              <mxPoint x="1180" y="540" />
            </Array>
          </mxGeometry>
        </mxCell>
        <mxCell id="JtSwTdIA30WOySHyKtoY-179" style="edgeStyle=orthogonalEdgeStyle;rounded=0;orthogonalLoop=1;jettySize=auto;html=1;entryX=1;entryY=0.5;entryDx=0;entryDy=0;endArrow=none;endFill=0;" edge="1" parent="1" source="JtSwTdIA30WOySHyKtoY-181" target="JtSwTdIA30WOySHyKtoY-9">
          <mxGeometry relative="1" as="geometry" />
        </mxCell>
        <mxCell id="JtSwTdIA30WOySHyKtoY-180" style="edgeStyle=orthogonalEdgeStyle;rounded=0;orthogonalLoop=1;jettySize=auto;html=1;entryX=0.5;entryY=1;entryDx=0;entryDy=0;endArrow=none;endFill=0;" edge="1" parent="1">
          <mxGeometry relative="1" as="geometry">
            <mxPoint x="816.0925641025644" y="341.0025641025645" as="sourcePoint" />
            <mxPoint x="856.0699999999997" y="316" as="targetPoint" />
          </mxGeometry>
        </mxCell>
        <mxCell id="JtSwTdIA30WOySHyKtoY-181" value="Evaluate" style="rhombus;whiteSpace=wrap;html=1;fillColor=#f0a30a;fontColor=#000000;strokeColor=#BD7000;" vertex="1" parent="1">
          <mxGeometry x="775.0699999999999" y="340" width="80" height="80" as="geometry" />
        </mxCell>
        <mxCell id="JtSwTdIA30WOySHyKtoY-182" value="M" style="text;html=1;align=center;verticalAlign=middle;whiteSpace=wrap;rounded=0;" vertex="1" parent="1">
          <mxGeometry x="470" y="420" width="50" height="20" as="geometry" />
        </mxCell>
        <mxCell id="JtSwTdIA30WOySHyKtoY-183" value="M" style="text;html=1;align=center;verticalAlign=middle;whiteSpace=wrap;rounded=0;" vertex="1" parent="1">
          <mxGeometry x="975" y="355" width="50" height="20" as="geometry" />
        </mxCell>
        <mxCell id="JtSwTdIA30WOySHyKtoY-184" style="edgeStyle=orthogonalEdgeStyle;rounded=0;orthogonalLoop=1;jettySize=auto;html=1;entryX=0.5;entryY=0;entryDx=0;entryDy=0;endArrow=none;endFill=0;" edge="1" parent="1" source="JtSwTdIA30WOySHyKtoY-185" target="JtSwTdIA30WOySHyKtoY-181">
          <mxGeometry relative="1" as="geometry" />
        </mxCell>
        <mxCell id="JtSwTdIA30WOySHyKtoY-185" value="explanition" style="ellipse;whiteSpace=wrap;html=1;fillColor=#76608a;fontColor=#ffffff;strokeColor=#432D57;" vertex="1" parent="1">
          <mxGeometry x="740" y="290" width="70" height="30" as="geometry" />
        </mxCell>
        <mxCell id="JtSwTdIA30WOySHyKtoY-186" value="labs" style="ellipse;whiteSpace=wrap;html=1;fillColor=#76608a;fontColor=#ffffff;strokeColor=#432D57;" vertex="1" parent="1">
          <mxGeometry x="825.0699999999999" y="290" width="70" height="30" as="geometry" />
        </mxCell>
        <mxCell id="JtSwTdIA30WOySHyKtoY-187" style="edgeStyle=orthogonalEdgeStyle;rounded=0;orthogonalLoop=1;jettySize=auto;html=1;entryX=0.75;entryY=1;entryDx=0;entryDy=0;shape=link;" edge="1" parent="1" source="JtSwTdIA30WOySHyKtoY-188" target="JtSwTdIA30WOySHyKtoY-102">
          <mxGeometry relative="1" as="geometry" />
        </mxCell>
        <mxCell id="JtSwTdIA30WOySHyKtoY-188" value="Mange" style="rhombus;whiteSpace=wrap;html=1;fillColor=#f0a30a;fontColor=#000000;strokeColor=#BD7000;" vertex="1" parent="1">
          <mxGeometry x="1010" y="610" width="60" height="60" as="geometry" />
        </mxCell>
        <mxCell id="JtSwTdIA30WOySHyKtoY-189" value="1" style="text;html=1;align=center;verticalAlign=middle;whiteSpace=wrap;rounded=0;" vertex="1" parent="1">
          <mxGeometry x="1150" y="590" width="30" height="10" as="geometry" />
        </mxCell>
        <mxCell id="JtSwTdIA30WOySHyKtoY-190" value="1" style="text;html=1;align=center;verticalAlign=middle;whiteSpace=wrap;rounded=0;" vertex="1" parent="1">
          <mxGeometry x="865" y="625" width="30" height="10" as="geometry" />
        </mxCell>
        <mxCell id="JtSwTdIA30WOySHyKtoY-191" value="Age" style="ellipse;whiteSpace=wrap;html=1;fillColor=#76608a;fontColor=#ffffff;strokeColor=#432D57;dashed=1;strokeWidth=2;" vertex="1" parent="1">
          <mxGeometry x="15" y="420" width="55" height="30" as="geometry" />
        </mxCell>
        <mxCell id="JtSwTdIA30WOySHyKtoY-192" style="edgeStyle=orthogonalEdgeStyle;rounded=0;orthogonalLoop=1;jettySize=auto;html=1;exitX=0;exitY=0.5;exitDx=0;exitDy=0;shape=link;" edge="1" parent="1" source="JtSwTdIA30WOySHyKtoY-194">
          <mxGeometry relative="1" as="geometry">
            <mxPoint x="154.97" y="-20" as="targetPoint" />
            <mxPoint x="1095.036666666667" y="-269.9333333333334" as="sourcePoint" />
          </mxGeometry>
        </mxCell>
        <mxCell id="JtSwTdIA30WOySHyKtoY-193" style="edgeStyle=orthogonalEdgeStyle;rounded=0;orthogonalLoop=1;jettySize=auto;html=1;entryX=0.25;entryY=0;entryDx=0;entryDy=0;endArrow=none;endFill=0;" edge="1" parent="1" source="JtSwTdIA30WOySHyKtoY-194" target="JtSwTdIA30WOySHyKtoY-60">
          <mxGeometry relative="1" as="geometry">
            <mxPoint x="1150" y="190" as="targetPoint" />
          </mxGeometry>
        </mxCell>
        <mxCell id="JtSwTdIA30WOySHyKtoY-194" value="Teaches" style="rhombus;whiteSpace=wrap;html=1;fillColor=#f0a30a;fontColor=#000000;strokeColor=#BD7000;" vertex="1" parent="1">
          <mxGeometry x="1048" y="-170" width="80" height="80" as="geometry" />
        </mxCell>
        <mxCell id="JtSwTdIA30WOySHyKtoY-195" value="M" style="text;html=1;align=center;verticalAlign=middle;whiteSpace=wrap;rounded=0;" vertex="1" parent="1">
          <mxGeometry x="105" y="-50" width="60" height="30" as="geometry" />
        </mxCell>
        <mxCell id="JtSwTdIA30WOySHyKtoY-196" value="M" style="text;html=1;align=center;verticalAlign=middle;whiteSpace=wrap;rounded=0;" vertex="1" parent="1">
          <mxGeometry x="1200" y="516" width="60" height="30" as="geometry" />
        </mxCell>
        <mxCell id="JtSwTdIA30WOySHyKtoY-197" style="edgeStyle=orthogonalEdgeStyle;rounded=0;orthogonalLoop=1;jettySize=auto;html=1;endArrow=none;endFill=0;" edge="1" parent="1" source="JtSwTdIA30WOySHyKtoY-198" target="JtSwTdIA30WOySHyKtoY-38">
          <mxGeometry relative="1" as="geometry" />
        </mxCell>
        <mxCell id="JtSwTdIA30WOySHyKtoY-198" value="Task&lt;span style=&quot;background-color: initial;&quot;&gt;_Date&lt;/span&gt;" style="ellipse;whiteSpace=wrap;html=1;fillColor=#76608a;fontColor=#ffffff;strokeColor=#432D57;" vertex="1" parent="1">
          <mxGeometry x="645.07" y="880" width="90" height="30" as="geometry" />
        </mxCell>
        <mxCell id="JtSwTdIA30WOySHyKtoY-199" style="edgeStyle=orthogonalEdgeStyle;rounded=0;orthogonalLoop=1;jettySize=auto;html=1;entryX=0.5;entryY=1;entryDx=0;entryDy=0;endArrow=none;endFill=0;" edge="1" parent="1" source="JtSwTdIA30WOySHyKtoY-200" target="JtSwTdIA30WOySHyKtoY-83">
          <mxGeometry relative="1" as="geometry" />
        </mxCell>
        <mxCell id="JtSwTdIA30WOySHyKtoY-200" value="&lt;span style=&quot;background-color: initial;&quot;&gt;Job_Date&lt;/span&gt;" style="ellipse;whiteSpace=wrap;html=1;fillColor=#76608a;fontColor=#ffffff;strokeColor=#432D57;" vertex="1" parent="1">
          <mxGeometry x="425.00000000000006" y="925" width="90" height="30" as="geometry" />
        </mxCell>
        <mxCell id="JtSwTdIA30WOySHyKtoY-201" style="edgeStyle=orthogonalEdgeStyle;rounded=0;orthogonalLoop=1;jettySize=auto;html=1;entryX=0;entryY=1;entryDx=0;entryDy=0;endArrow=none;endFill=0;" edge="1" parent="1" source="JtSwTdIA30WOySHyKtoY-202" target="JtSwTdIA30WOySHyKtoY-9">
          <mxGeometry relative="1" as="geometry" />
        </mxCell>
        <mxCell id="JtSwTdIA30WOySHyKtoY-202" value="Social-Media" style="ellipse;whiteSpace=wrap;html=1;fillColor=#76608a;fontColor=#ffffff;strokeColor=#432D57;" vertex="1" parent="1">
          <mxGeometry x="120" y="551" width="80" height="40" as="geometry" />
        </mxCell>
      </root>
    </mxGraphModel>
  </diagram>
</mxfile>
